<svg width="48" height="48" viewBox="0 0 48 48" fill="none" xmlns="http://www.w3.org/2000/svg">
<circle cx="24" cy="24" r="24" fill="#CD9135"/>
<path d="M24.001 21C22.3436 21 21.001 22.3431 21.001 24C21.001 25.6573 22.3441 27 24.001 27C25.6583 27 27.001 25.6569 27.001 24C27.001 22.3427 25.6579 21 24.001 21ZM24.001 19C26.7614 19 29.001 21.2371 29.001 24C29.001 26.7605 26.7639 29 24.001 29C21.2405 29 19.001 26.7629 19.001 24C19.001 21.2395 21.2381 19 24.001 19ZM30.501 18.7491C30.501 19.4393 29.9402 19.9992 29.251 19.9992C28.5609 19.9992 28.001 19.4384 28.001 18.7491C28.001 18.0599 28.5617 17.5 29.251 17.5C29.9393 17.4991 30.501 18.0599 30.501 18.7491ZM24.001 16C21.5265 16 21.1232 16.0065 19.9723 16.0578C19.1881 16.0946 18.6625 16.2001 18.1742 16.3897C17.7402 16.558 17.4271 16.759 17.0935 17.0925C16.7587 17.4274 16.558 17.7396 16.3904 18.1738C16.2004 18.6633 16.0949 19.1881 16.0588 19.9711C16.007 21.0752 16.001 21.4611 16.001 24C16.001 26.4745 16.0075 26.8778 16.0588 28.0286C16.0956 28.8124 16.2012 29.3388 16.3903 29.826C16.5591 30.2606 16.7605 30.5744 17.0925 30.9064C17.4286 31.2421 17.7418 31.4434 18.1719 31.6094C18.6662 31.8005 19.1915 31.9061 19.9721 31.9422C21.0762 31.9939 21.462 32 24.001 32C26.4755 32 26.8788 31.9934 28.0296 31.9422C28.8117 31.9055 29.3385 31.7996 29.827 31.6106C30.2604 31.4423 30.5752 31.2402 30.9074 30.9085C31.2436 30.5718 31.4445 30.2594 31.6107 29.8283C31.8013 29.3358 31.9071 28.8098 31.9432 28.0289C31.9949 26.9248 32.001 26.5389 32.001 24C32.001 21.5255 31.9944 21.1222 31.9432 19.9714C31.9064 19.1891 31.8005 18.6615 31.6113 18.1732C31.4434 17.7404 31.2417 17.4263 30.9084 17.0925C30.573 16.7571 30.2616 16.5569 29.8271 16.3894C29.338 16.1995 28.8124 16.094 28.0298 16.0578C26.9258 16.006 26.5399 16 24.001 16ZM24.001 14C26.7176 14 27.0568 14.01 28.1235 14.06C29.1876 14.1092 29.9135 14.2775 30.551 14.525C31.2101 14.7792 31.7668 15.1225 32.3226 15.6783C32.8776 16.2342 33.221 16.7925 33.476 17.45C33.7226 18.0867 33.891 18.8133 33.941 19.8775C33.9885 20.9442 34.001 21.2833 34.001 24C34.001 26.7167 33.991 27.0558 33.941 28.1225C33.8918 29.1867 33.7226 29.9125 33.476 30.55C33.2218 31.2092 32.8776 31.7658 32.3226 32.3217C31.7668 32.8767 31.2076 33.22 30.551 33.475C29.9135 33.7217 29.1876 33.89 28.1235 33.94C27.0568 33.9875 26.7176 34 24.001 34C21.2843 34 20.9451 33.99 19.8785 33.94C18.8143 33.8908 18.0893 33.7217 17.451 33.475C16.7926 33.2208 16.2351 32.8767 15.6793 32.3217C15.1235 31.7658 14.781 31.2067 14.526 30.55C14.2785 29.9125 14.111 29.1867 14.061 28.1225C14.0135 27.0558 14.001 26.7167 14.001 24C14.001 21.2833 14.011 20.9442 14.061 19.8775C14.1101 18.8125 14.2785 18.0875 14.526 17.45C14.7801 16.7917 15.1235 16.2342 15.6793 15.6783C16.2351 15.1225 16.7935 14.78 17.451 14.525C18.0885 14.2775 18.8135 14.11 19.8785 14.06C20.9451 14.0125 21.2843 14 24.001 14Z" fill="white"/>
</svg>
