<svg width="65" height="32" viewBox="0 0 65 32" fill="none" xmlns="http://www.w3.org/2000/svg">
<path d="M17.8744 10.9252C17.8744 13.7231 15.9998 15.5562 12.789 15.5562H10.5813V19.261H6.46421V6.31356H12.7812C15.9998 6.31356 17.8744 8.12735 17.8744 10.9252ZM13.6449 10.9252C13.6449 10.1071 13.1182 9.6903 12.2429 9.6903H10.5813V12.1602H12.2429C13.1182 12.1602 13.6449 11.7434 13.6449 10.9252ZM24.6756 19.2455C24.5117 18.9048 24.4182 18.5347 24.4006 18.1573C23.8893 19.0294 22.8513 19.5543 21.3757 19.5543C19.3888 19.5543 17.9092 18.6474 17.9092 16.6676C17.9092 15.0314 18.9124 14.0125 21.5035 13.7617L23.2154 13.5958C23.99 13.5224 24.3463 13.3796 24.3463 12.8895C24.3463 12.3994 23.9823 12.1987 23.289 12.1987C22.5957 12.1987 22.2123 12.4149 22.158 13.1249H18.3663C18.4592 10.8365 19.8613 9.65171 23.3432 9.65171C26.736 9.65171 28.1381 10.74 28.1381 12.6464V17.7521C28.1346 18.2691 28.254 18.7795 28.4867 19.2417L24.6756 19.2455ZM24.3463 15.6681V15.0507C24.2465 15.1713 24.1211 15.2684 23.9791 15.3351C23.8372 15.4019 23.6822 15.4365 23.5252 15.4366L22.6499 15.5446C22.0496 15.6179 21.7591 15.8726 21.7591 16.3628C21.7591 16.9262 22.1464 17.1963 22.8707 17.1963C23.8351 17.1925 24.3463 16.6831 24.3463 15.6681ZM36.4072 9.78292V13.179H35.5202C34.0446 13.179 33.2622 13.9045 33.2622 15.6488V19.2455H29.4705V9.87168H33.1886V11.7241C33.5178 10.4004 34.3506 9.7289 35.7216 9.7289C35.9514 9.72455 36.181 9.74264 36.4072 9.78292ZM37.4297 6.3097H41.2215V19.2455H37.4181L37.4297 6.3097ZM48.9134 19.2417C48.7492 18.9013 48.6569 18.5308 48.6423 18.1534C48.1311 19.0256 47.0931 19.5504 45.6136 19.5504C43.6267 19.5504 42.151 18.6435 42.151 16.6638C42.151 15.0275 43.1541 14.0087 45.7414 13.7578L47.4572 13.5919C48.2318 13.5186 48.5842 13.3758 48.5842 12.8857C48.5842 12.3956 48.2202 12.1949 47.5269 12.1949C46.8336 12.1949 46.454 12.411 46.3998 13.1211H42.6042C42.6971 10.8326 44.0992 9.64785 47.5811 9.64785C50.9739 9.64785 52.3799 10.7361 52.3799 12.6425V17.7521C52.3767 18.2686 52.4948 18.7787 52.7246 19.2417H48.9134ZM48.5842 15.6643V15.0507C48.4851 15.1712 48.3604 15.2683 48.2191 15.3351C48.0778 15.4018 47.9234 15.4365 47.767 15.4366L46.8917 15.5446C46.2875 15.6179 45.997 15.8726 45.997 16.3628C45.997 16.9262 46.3843 17.1963 47.1086 17.1963C48.0652 17.1925 48.5726 16.6831 48.5726 15.6681L48.5842 15.6643ZM53.7083 15.2475H57.8448V19.2455H53.6967L53.7083 15.2475ZM53.7277 9.94115V6.31356H57.8448V9.94501L56.6596 14.576H54.9284L53.7277 9.94115ZM61.9697 2.31549V23.2436H5.49981L2.32386 26.4081V2.31549H61.9697ZM64.2935 0H0V32L3.96606 28.0482L6.46421 25.5591H64.2935V0Z" fill="white"/>
</svg>
