<svg width="48" height="48" viewBox="0 0 48 48" fill="none" xmlns="http://www.w3.org/2000/svg">
<circle cx="24" cy="24" r="24" fill="#CD9135"/>
<path d="M20.4916 31.1912C20.5153 30.8546 20.5631 30.5199 20.6346 30.1897C20.6975 29.8951 20.8887 29.0596 21.1687 27.8498L21.1758 27.8191C21.2989 27.2872 21.4309 26.7192 21.5628 26.1525C21.642 25.8124 21.7036 25.5484 21.7444 25.4602C21.5501 25.0123 21.453 24.5263 21.4597 24.0373C21.4597 22.6999 22.2157 21.6636 23.1958 21.6636C23.5555 21.6581 23.8996 21.8139 24.1383 22.09C24.3764 22.3655 24.4863 22.7335 24.4404 23.086C24.4404 23.5385 24.3548 23.8844 23.9865 25.1212C23.9158 25.3587 23.8674 25.5254 23.8215 25.692C23.7696 25.8799 23.7261 26.0503 23.6887 26.2136C23.5928 26.6003 23.6811 27.011 23.9262 27.3195C24.1707 27.6272 24.5421 27.7966 24.9319 27.7762C26.4242 27.7762 27.5321 25.7911 27.5321 23.2277C27.5321 21.258 26.2412 19.9542 24.1 19.9542C23.0224 19.9113 21.9747 20.3252 21.2009 21.0999C20.4266 21.8751 19.9945 22.9437 20.0056 24.0614C19.9821 24.6633 20.1706 25.2536 20.518 25.7053C20.6991 25.8441 20.7687 26.0885 20.6926 26.2941C20.6516 26.4632 20.5526 26.8473 20.5165 26.9755C20.4946 27.1032 20.415 27.2131 20.3013 27.2715C20.1868 27.3303 20.0517 27.3297 19.9462 27.2737C18.7851 26.7954 18.1497 25.4963 18.1497 23.8349C18.1497 20.8491 20.6413 18.2497 24.3417 18.2497C27.4772 18.2497 29.8231 20.5786 29.8231 23.3896C29.8231 26.922 27.8911 29.4942 25.1337 29.4942C24.3393 29.5202 23.5838 29.162 23.087 28.535L23.044 28.712C22.9499 29.0992 22.9028 29.2928 22.8368 29.5638L22.8349 29.5715C22.6887 30.1717 22.5867 30.5885 22.5471 30.7452C22.4412 31.0998 22.307 31.448 22.1471 31.7841C22.7421 31.9253 23.3628 32 24.001 32C28.4193 32 32.001 28.4183 32.001 24C32.001 19.5817 28.4193 16 24.001 16C19.5827 16 16.001 19.5817 16.001 24C16.001 27.1594 17.8324 29.8911 20.4916 31.1912ZM24.001 34C18.4781 34 14.001 29.5228 14.001 24C14.001 18.4771 18.4781 14 24.001 14C29.5238 14 34.001 18.4771 34.001 24C34.001 29.5228 29.5238 34 24.001 34Z" fill="white"/>
</svg>
