<svg width="200" height="200" viewBox="0 0 200 200" fill="none" xmlns="http://www.w3.org/2000/svg">
<path d="M38.1951 144.342C29.6097 135.228 25 125 25 108.419C25 79.2571 45.4709 53.1138 75.2549 40.1931L82.694 51.6732C54.9003 66.7115 49.4682 86.2166 47.297 98.5166C51.7719 96.2024 57.6298 95.3883 63.3726 95.9208C78.409 97.3149 90.26 109.658 90.26 125C90.26 141.108 77.2013 154.167 61.093 154.167C52.1508 154.167 43.5997 150.079 38.1951 144.342ZM121.528 144.342C112.943 135.228 108.333 125 108.333 108.419C108.333 79.2571 128.804 53.1138 158.588 40.1931L166.027 51.6732C138.233 66.7115 132.802 86.2166 130.63 98.5166C135.105 96.2024 140.963 95.3883 146.706 95.9208C161.742 97.3149 173.593 109.658 173.593 125C173.593 141.108 160.535 154.167 144.427 154.167C135.484 154.167 126.933 150.079 121.528 144.342Z" fill="white"/>
</svg>
