<svg width="64" height="64" viewBox="0 0 64 64" fill="none" xmlns="http://www.w3.org/2000/svg">
<circle cx="32" cy="32" r="32" fill="url(#paint0_linear_27_82)"/>
<path d="M32.0013 18.6665C39.3651 18.6665 45.3347 24.636 45.3347 31.9998C45.3347 39.3636 39.3651 45.3332 32.0013 45.3332C29.5561 45.3332 27.2647 44.675 25.2945 43.5261L18.6735 45.3332L20.4762 38.7085C19.3266 36.738 18.668 34.4458 18.668 31.9998C18.668 24.636 24.6375 18.6665 32.0013 18.6665ZM27.1898 25.7443C27.0172 25.7564 26.8481 25.7985 26.6941 25.8773C26.5786 25.9364 26.4713 26.0219 26.3028 26.181C26.1436 26.3312 26.0514 26.4625 25.9542 26.589C25.4613 27.2308 25.1964 28.0186 25.2013 28.8278C25.204 29.482 25.3739 30.1177 25.6422 30.7113C26.1864 31.915 27.0838 33.1876 28.2692 34.3677C28.554 34.6512 28.833 34.9377 29.1338 35.2025C30.6051 36.498 32.3584 37.4321 34.2543 37.9308C34.2543 37.9308 35.0009 38.0454 35.0119 38.0461C35.2592 38.0594 35.5061 38.0416 35.7537 38.0289C36.1421 38.0089 36.5213 37.9038 36.8645 37.721C37.0852 37.6036 37.1896 37.5452 37.3748 37.4284C37.3748 37.4284 37.4316 37.39 37.5412 37.3084C37.7212 37.1742 37.8324 37.0798 37.9821 36.9244C38.0925 36.8097 38.1875 36.6742 38.2608 36.5216C38.3651 36.304 38.47 35.8886 38.5117 35.5437C38.5436 35.2802 38.534 35.1362 38.5305 35.047C38.5248 34.9036 38.4063 34.756 38.2764 34.6933L37.5011 34.3448C37.5011 34.3448 36.3417 33.8402 35.6327 33.5168C35.5588 33.483 35.478 33.4674 35.3968 33.4625C35.2189 33.4516 35.0196 33.498 34.8928 33.6316C34.8861 33.6289 34.7979 33.7052 33.8332 34.8738C33.78 34.9374 33.6553 35.0757 33.4397 35.0628C33.4072 35.0605 33.3748 35.0558 33.3432 35.0476C33.2559 35.0245 33.1708 34.9941 33.0876 34.9589C32.9227 34.8889 32.8648 34.8624 32.7521 34.8138C31.9824 34.4776 31.276 34.0277 30.6516 33.4772C30.4841 33.3297 30.3284 33.1709 30.1679 33.0153C29.6076 32.4722 29.1489 31.8946 28.8077 31.3249C28.7891 31.2938 28.7604 31.2489 28.7294 31.1986C28.6736 31.1078 28.612 30.9998 28.5927 30.9257C28.5432 30.7296 28.6746 30.572 28.6746 30.572C28.6746 30.572 28.9992 30.2172 29.15 30.0242C29.295 29.8385 29.4203 29.6569 29.5 29.5274C29.6571 29.2749 29.7068 29.014 29.6243 28.8127C29.2502 27.9007 28.8642 26.9937 28.4665 26.0918C28.388 25.9138 28.1545 25.7845 27.9421 25.7599C27.8702 25.7516 27.7983 25.7433 27.7261 25.7385C27.5474 25.7298 27.3683 25.7317 27.1898 25.7443Z" fill="white"/>
<defs>
<linearGradient id="paint0_linear_27_82" x1="64" y1="0" x2="0" y2="64" gradientUnits="userSpaceOnUse">
<stop stop-color="#60D145"/>
<stop offset="1" stop-color="#20A113"/>
</linearGradient>
</defs>
</svg>
